<mxfile host="app.diagrams.net" modified="2023-02-21T01:05:52.733Z" agent="5.0 (Windows NT 10.0; Win64; x64) AppleWebKit/537.36 (KHTML, like Gecko) Chrome/110.0.0.0 Safari/537.36" etag="Q-3sSZ0HnicnAryJQLL5" version="20.8.21" type="github">
  <diagram name="Page-1" id="c4acf3e9-155e-7222-9cf6-157b1a14988f">
    <mxGraphModel dx="1050" dy="541" grid="1" gridSize="10" guides="1" tooltips="1" connect="1" arrows="1" fold="1" page="1" pageScale="1" pageWidth="850" pageHeight="1100" background="none" math="0" shadow="0">
      <root>
        <mxCell id="0" />
        <mxCell id="1" parent="0" />
        <mxCell id="TSrVDf9FQaybQOhuNdKW-1" value="" style="ellipse;whiteSpace=wrap;html=1;" parent="1" vertex="1">
          <mxGeometry x="320" y="190" width="250" height="150" as="geometry" />
        </mxCell>
        <mxCell id="3dF8oCnv1FuNLzT9bXhd-1" value="" style="rounded=0;whiteSpace=wrap;html=1;" vertex="1" parent="1">
          <mxGeometry x="60" y="110" width="120" height="30" as="geometry" />
        </mxCell>
        <mxCell id="3dF8oCnv1FuNLzT9bXhd-2" value="" style="rounded=0;whiteSpace=wrap;html=1;" vertex="1" parent="1">
          <mxGeometry x="40" y="160" width="120" height="30" as="geometry" />
        </mxCell>
        <mxCell id="3dF8oCnv1FuNLzT9bXhd-3" value="" style="rounded=0;whiteSpace=wrap;html=1;" vertex="1" parent="1">
          <mxGeometry x="60" y="210" width="120" height="30" as="geometry" />
        </mxCell>
        <mxCell id="3dF8oCnv1FuNLzT9bXhd-4" value="" style="rounded=0;whiteSpace=wrap;html=1;" vertex="1" parent="1">
          <mxGeometry x="80" y="260" width="120" height="30" as="geometry" />
        </mxCell>
        <mxCell id="3dF8oCnv1FuNLzT9bXhd-13" value="" style="rounded=0;whiteSpace=wrap;html=1;" vertex="1" parent="1">
          <mxGeometry x="100" y="310" width="120" height="30" as="geometry" />
        </mxCell>
        <mxCell id="3dF8oCnv1FuNLzT9bXhd-14" value="" style="rounded=0;whiteSpace=wrap;html=1;" vertex="1" parent="1">
          <mxGeometry x="120" y="360" width="120" height="30" as="geometry" />
        </mxCell>
        <mxCell id="3dF8oCnv1FuNLzT9bXhd-15" value="" style="rounded=0;whiteSpace=wrap;html=1;" vertex="1" parent="1">
          <mxGeometry x="80" y="60" width="120" height="30" as="geometry" />
        </mxCell>
        <mxCell id="3dF8oCnv1FuNLzT9bXhd-16" value="" style="rounded=0;whiteSpace=wrap;html=1;" vertex="1" parent="1">
          <mxGeometry x="660" y="110" width="120" height="30" as="geometry" />
        </mxCell>
        <mxCell id="3dF8oCnv1FuNLzT9bXhd-17" value="" style="rounded=0;whiteSpace=wrap;html=1;" vertex="1" parent="1">
          <mxGeometry x="680" y="160" width="120" height="30" as="geometry" />
        </mxCell>
        <mxCell id="3dF8oCnv1FuNLzT9bXhd-18" value="" style="rounded=0;whiteSpace=wrap;html=1;" vertex="1" parent="1">
          <mxGeometry x="650" y="210" width="120" height="30" as="geometry" />
        </mxCell>
        <mxCell id="3dF8oCnv1FuNLzT9bXhd-19" value="" style="rounded=0;whiteSpace=wrap;html=1;" vertex="1" parent="1">
          <mxGeometry x="670" y="260" width="120" height="30" as="geometry" />
        </mxCell>
        <mxCell id="3dF8oCnv1FuNLzT9bXhd-20" value="" style="rounded=0;whiteSpace=wrap;html=1;" vertex="1" parent="1">
          <mxGeometry x="690" y="310" width="120" height="30" as="geometry" />
        </mxCell>
        <mxCell id="3dF8oCnv1FuNLzT9bXhd-21" value="" style="rounded=0;whiteSpace=wrap;html=1;" vertex="1" parent="1">
          <mxGeometry x="710" y="360" width="120" height="30" as="geometry" />
        </mxCell>
        <mxCell id="3dF8oCnv1FuNLzT9bXhd-22" value="" style="rounded=0;whiteSpace=wrap;html=1;" vertex="1" parent="1">
          <mxGeometry x="640" y="60" width="120" height="30" as="geometry" />
        </mxCell>
      </root>
    </mxGraphModel>
  </diagram>
</mxfile>
